<svg width="24" height="24" viewBox="0 0 24 24" fill="none" xmlns="http://www.w3.org/2000/svg">
<path d="M13.9236 12.133L11.2284 10.8754C10.9932 10.7662 10.8 10.8886 10.8 11.149V13.5178C10.8 13.7782 10.9932 13.9006 11.2284 13.7914L13.9224 12.5338C14.1588 12.4234 14.1588 12.2434 13.9236 12.133ZM12 0.813416C5.63758 0.813416 0.47998 5.97102 0.47998 12.3334C0.47998 18.6958 5.63758 23.8534 12 23.8534C18.3624 23.8534 23.52 18.6958 23.52 12.3334C23.52 5.97102 18.3624 0.813416 12 0.813416ZM12 17.0134C6.10318 17.0134 5.99998 16.4818 5.99998 12.3334C5.99998 8.18502 6.10318 7.65342 12 7.65342C17.8968 7.65342 18 8.18502 18 12.3334C18 16.4818 17.8968 17.0134 12 17.0134Z" fill="#1CB393"/>
</svg>
