<svg width="24" height="25" viewBox="0 0 24 25" fill="none" xmlns="http://www.w3.org/2000/svg">
<path fill-rule="evenodd" clip-rule="evenodd" d="M24 12.3334C24 18.9604 18.627 24.3334 12 24.3334C5.373 24.3334 0 18.9604 0 12.3334C0 5.70644 5.373 0.333435 12 0.333435C18.627 0.333435 24 5.70644 24 12.3334ZM12.43 9.19244C11.263 9.67743 8.93 10.6824 5.432 12.2064C4.864 12.4324 4.566 12.6534 4.539 12.8694C4.493 13.2354 4.951 13.3794 5.573 13.5744C5.658 13.6014 5.746 13.6284 5.836 13.6584C6.449 13.8574 7.273 14.0904 7.701 14.0994C8.09 14.1074 8.524 13.9474 9.003 13.6194C12.271 11.4124 13.958 10.2974 14.064 10.2734C14.139 10.2564 14.243 10.2344 14.313 10.2974C14.383 10.3594 14.376 10.4774 14.369 10.5094C14.323 10.7024 12.529 12.3714 11.599 13.2354C11.309 13.5044 11.104 13.6954 11.062 13.7394C10.968 13.8364 10.872 13.9294 10.78 14.0184C10.21 14.5664 9.784 14.9784 10.804 15.6504C11.294 15.9734 11.686 16.2404 12.077 16.5064C12.504 16.7974 12.93 17.0874 13.482 17.4494C13.622 17.5414 13.756 17.6364 13.887 17.7294C14.384 18.0844 14.831 18.4024 15.383 18.3524C15.703 18.3224 16.035 18.0214 16.203 17.1224C16.6 14.9964 17.382 10.3924 17.563 8.49444C17.574 8.33685 17.5673 8.17852 17.543 8.02244C17.5285 7.89637 17.4671 7.78037 17.371 7.69743C17.228 7.58043 17.006 7.55544 16.906 7.55744C16.455 7.56543 15.763 7.80644 12.43 9.19244Z" fill="#1CB393"/>
</svg>
